<svg xmlns="http://www.w3.org/2000/svg" height="60" width="60" preserveAspectRatio="xMidYMid meet" class="" fill="none"><title>spot-ill-web-native</title><path fill="#E6FFDA" stroke="#111B21" stroke-miterlimit="10" stroke-width="1.25" d="M12.5 14.8h35a5.2 5.2 0 0 1 5.2 5.2v31.04H7.3V20a5.2 5.2 0 0 1 5.2-5.2Z" style="fill-opacity: 1; stroke-opacity: 1;"></path><path fill="#E6FFDA" stroke="#111B21" stroke-miterlimit="10" stroke-width="1.25" d="M59.35 44.8a7.7 7.7 0 0 1-7.68 7.08H8.33a7.7 7.7 0 0 1-7.68-7.09h58.7Z" style="fill-opacity: 1; stroke-opacity: 1;"></path><rect width="41.25" height="28.75" x="18.13" y="8.13" fill="#FCF5EB" stroke="#111B21" stroke-miterlimit="10" stroke-width="1.25" rx="5.21" style="fill-opacity: 1; stroke-opacity: 1;"></rect><path fill="#25D366" fill-rule="evenodd" stroke="#111B21" stroke-width="1.25" d="M46.55 26.89a73 73 0 0 0-2.9-1.83c-.39-.2-.68-.31-1.03.1A26 26 0 0 1 41 26.74c-.3.27-.57.27-.99 0-.42-.28-1.8-.93-3.34-2.66a13.6 13.6 0 0 1-2.12-3.4c-.2-.48.06-.7.31-.9.23-.17.52-.46.77-.7.26-.23.36-.4.54-.69.19-.28.14-.54.06-.78-.09-.24-.72-2.55-.98-3.5-.26-.9-.64-.84-.92-.88a17 17 0 0 0-.86-.12c-.3-.04-.8.01-1.26.41-.47.4-1.76 1.34-2.03 3.54s1.08 4.53 1.27 4.85c.19.33 2.58 5.2 6.84 7.69 1.02.59 1.82.96 2.45 1.25a6.2 6.2 0 0 0 2.8.52c.88-.02 2.79-.76 3.29-1.76s.6-1.9.52-2.1c-.09-.2-.38-.34-.8-.62Z" clip-rule="evenodd" style="fill-opacity: 1; stroke-opacity: 1;"></path></svg>